<svg xmlns="http://www.w3.org/2000/svg" viewBox="0 0 188.97 252.13"><defs><style>.cls-1{fill:#005928;}</style></defs><g id="Camada_2" data-name="Camada 2"><g id="Camada_1-2" data-name="Camada 1"><path class="cls-1" d="M185.28,59.21a3.7,3.7,0,0,0-3.7,3.7V244.49a.26.26,0,0,1-.25.26H7.64a.26.26,0,0,1-.25-.26V7.64a.25.25,0,0,1,.25-.25H138.16V43.17a7.65,7.65,0,0,0,7.64,7.64h39.48a3.69,3.69,0,0,0,2.61-6.3L144.47,1.08l-.1-.09h0a3.69,3.69,0,0,0-2.47-1H7.64A7.65,7.65,0,0,0,0,7.64V244.49a7.65,7.65,0,0,0,7.64,7.64H181.33a7.65,7.65,0,0,0,7.64-7.64V62.91A3.7,3.7,0,0,0,185.28,59.21Zm-39.73-46.6,30.81,30.81H145.8a.25.25,0,0,1-.25-.25Z"/><path class="cls-1" d="M46.86,44.52V31.64c2.74.9,4.46,2.7,4.46,4.37a3.69,3.69,0,1,0,7.38,0c0-5.9-5-10.7-11.84-12v-.6a3.7,3.7,0,0,0-7.39,0V24c-6.87,1.28-11.84,6.08-11.84,12,0,8.25,6.59,11.71,11.84,13.7V62.59C36.74,61.7,35,59.89,35,58.22a3.7,3.7,0,0,0-7.39,0c0,5.9,5,10.7,11.84,12v.59a3.7,3.7,0,1,0,7.39,0v-.59c6.87-1.29,11.84-6.09,11.84-12C58.7,50,52.12,46.51,46.86,44.52Zm-7.39-2.86C35.77,39.85,35,38.26,35,36c0-1.67,1.72-3.47,4.45-4.37Zm7.39,20.93v-10c3.7,1.81,4.46,3.39,4.46,5.64C51.32,59.89,49.6,61.7,46.86,62.59Z"/><path class="cls-1" d="M165.29,90.54a3.7,3.7,0,0,0-3.7-3.69H27.38a3.69,3.69,0,0,0-3.69,3.69v71.05a3.7,3.7,0,0,0,3.69,3.7H161.59a3.7,3.7,0,0,0,3.7-3.7v-71ZM94.74,157.9H31.07V141.6H94.74Zm0-23.68H31.07v-16.3H94.74Zm0-23.69H31.07V94.23H94.74Zm31.58,47.37H102.13V141.6h24.19Zm0-23.68H102.13v-16.3h24.19Zm0-23.69H102.13V94.23h24.19ZM157.9,157.9H133.71V141.6H157.9Zm0-23.68H133.71v-16.3H157.9Zm0-23.69H133.71V94.23H157.9Z"/><path class="cls-1" d="M94.49,177.64a23.43,23.43,0,1,0,23.43,23.43A23.46,23.46,0,0,0,94.49,177.64Zm0,39.47a16,16,0,1,1,16-16A16.06,16.06,0,0,1,94.49,217.11Z"/><path class="cls-1" d="M94.49,193.43a7.64,7.64,0,1,0,7.64,7.64A7.65,7.65,0,0,0,94.49,193.43Z"/><path class="cls-1" d="M59,189.48H27.38a3.7,3.7,0,1,0,0,7.39H59a3.7,3.7,0,0,0,0-7.39Z"/><path class="cls-1" d="M59,205.27H35.27a3.7,3.7,0,0,0,0,7.39H59a3.7,3.7,0,0,0,0-7.39Z"/><path class="cls-1" d="M157.65,185.53H134a7.65,7.65,0,0,0-7.64,7.64V209A7.65,7.65,0,0,0,134,216.6h23.69a7.65,7.65,0,0,0,7.64-7.64V193.17A7.65,7.65,0,0,0,157.65,185.53ZM157.9,209a.26.26,0,0,1-.25.26H134a.26.26,0,0,1-.25-.26V193.17a.25.25,0,0,1,.25-.25h23.69a.25.25,0,0,1,.25.25Z"/><path class="cls-1" d="M114.22,27.63h-7.89a3.7,3.7,0,0,0,0,7.39h7.89a3.7,3.7,0,1,0,0-7.39Z"/><path class="cls-1" d="M90.54,27.63H74.75a3.7,3.7,0,1,0,0,7.39H90.54a3.7,3.7,0,0,0,0-7.39Z"/><path class="cls-1" d="M126.07,43.42H74.75a3.7,3.7,0,1,0,0,7.39h51.32a3.7,3.7,0,0,0,0-7.39Z"/><path class="cls-1" d="M126.07,59.21h-7.9a3.7,3.7,0,0,0,0,7.39h7.9a3.7,3.7,0,0,0,0-7.39Z"/><path class="cls-1" d="M102.38,59.21H74.75a3.7,3.7,0,1,0,0,7.39h27.63a3.7,3.7,0,0,0,0-7.39Z"/></g></g></svg>