<svg xmlns="http://www.w3.org/2000/svg" viewBox="0 0 362.03 66.6"><defs><style>.cls-1,.cls-2{fill:#d41921;}.cls-2{font-size:43.55px;font-family:OpenSans-Italic, Open Sans;font-style:italic;}</style></defs><g id="Camada_2" data-name="Camada 2"><g id="Camada_1-2" data-name="Camada 1"><path class="cls-1" d="M130,17.73c-.2,1.67-.37,3.15-.54,4.62q-.61,5.4-1.22,10.79c-.4,3.53-.79,7.06-1.19,10.59-.37,3.34-.75,6.69-1.13,10a.69.69,0,0,1-.75.68h-9.85c-.62,0-.8-.39-.73-.93.18-1.65.37-3.3.56-4.95l1.08-9.34c.4-3.46.81-6.93,1.21-10.4s.79-6.85,1.19-10.27c.21-1.88.43-3.76.64-5.64a.76.76,0,0,1,.84-.76c4.33,0,8.67,0,13,.07a70.54,70.54,0,0,1,7.41.65,16.57,16.57,0,0,1,8.35,3.21,44.63,44.63,0,0,1,4.48-2.33,21.24,21.24,0,0,1,16.18,0c4.73,2,7.13,5.75,7.81,10.72A30.28,30.28,0,0,1,177,32.1c-.43,3.83-.9,7.64-1.35,11.47q-.57,5-1.13,10.09c-.06.56-.36.79-.93.79H164.4c-.77,0-1-.22-.91-1q.31-3.13.68-6.27c.39-3.51.8-7,1.2-10.53s.8-6.93,1.21-10.4a8.54,8.54,0,0,0-.14-4,5.93,5.93,0,0,0-7.76-3.58,7.56,7.56,0,0,0-5.24,6.71c-.3,2.8-.7,5.59-1,8.39-.37,3.11-.72,6.22-1.09,9.33-.41,3.53-.83,7.06-1.23,10.59-.06.62-.36.82-1,.82h-9.34c-.78,0-1-.29-.9-1.07.42-3.44.82-6.89,1.22-10.33.36-3.14.73-6.27,1.06-9.41.23-2.29.55-4.6.56-6.9,0-4.71-2.22-7.43-6.82-8.39C133.32,18,131.67,17.93,130,17.73Z" transform="translate(0 0)"/><path class="cls-1" d="M6.84,54.11l5.35,1.72c-.25,2.26-.51,4.56-.77,6.85-.11,1-.23,2-.34,2.95-.08.77-.26,1-1,1-3,0-6.06,0-9.09,0-.85,0-1-.22-.95-1.09.3-2.72.62-5.43.93-8.15L2,48c.41-3.53.81-7.06,1.22-10.59S4,30.43,4.43,27s.81-7.06,1.21-10.59c.14-1.15.28-2.29.4-3.44.06-.59.39-.79.93-.79,4.53,0,9.06,0,13.58.16a25.87,25.87,0,0,1,11.84,3.15c6.13,3.5,9.2,8.88,9,15.88-.24,9.5-5.08,16.09-13.61,20.05A35,35,0,0,1,15,54.31a37,37,0,0,1-7.87-.38,1.5,1.5,0,0,0-.3,0Zm6.3-6.22h.72A14.22,14.22,0,0,0,24.18,43a17.77,17.77,0,0,0,4.17-9.9A12.64,12.64,0,0,0,17.83,18.82c-1.29-.22-1.29-.22-1.46,1.1a.5.5,0,0,0,0,.12c-.41,3.51-.81,7-1.22,10.53L14.05,39.9Z" transform="translate(0 0)"/><path class="cls-1" d="M237.47,12.49c1.33-.14,2.66-.36,4-.41,7.35-.25,14,1.62,19.55,6.63,6,5.43,7.52,13.27,4.15,20.82-2.85,6.41-7.83,10.51-14.34,12.85a36.53,36.53,0,0,1-12.13,2c-3.64,0-7.28,0-10.93,0-.86,0-1-.25-.94-1.13.41-3.42.8-6.85,1.2-10.27s.81-6.85,1.21-10.27S230,26,230.43,22.55s.81-6.93,1.22-10.4.77-6.85,1.19-10.27c.23-1.88-.09-1.89,2-1.88,2.72,0,5.44,0,8.15,0,.87,0,1.09.27,1,1.12-.34,2.84-.68,5.67-1,8.52a1.08,1.08,0,0,1-.93,1.08c-1.43.41-2.82,1-4.23,1.45a4.37,4.37,0,0,0-.43.22Zm1.12,35.37c.31,0,.54,0,.77,0a14.52,14.52,0,0,0,5.11-1.52c5.71-3,9-7.67,9.42-14.16a13.88,13.88,0,0,0-1.43-7.6c-2.11-4-5.66-5.67-10-5.89-.47,0-.5.26-.53.59-.15,1.32-.29,2.64-.45,3.95-.4,3.47-.8,6.93-1.21,10.4q-.53,4.6-1.07,9.21C239,44.49,238.79,46.14,238.59,47.86Z" transform="translate(0 0)"/><path class="cls-1" d="M201.54,55.31c-4.32-.07-7.54-.43-10.6-1.71a15.82,15.82,0,0,1-10-12.54,27.37,27.37,0,0,1,2.83-17.87c3.36-6.33,8.8-9.93,15.74-11.28a27.9,27.9,0,0,1,14.11.62c6.79,2.2,10.63,7,11.59,14a27.71,27.71,0,0,1-2.72,16.12c-3.23,6.63-8.7,10.44-15.8,12A48.77,48.77,0,0,1,201.54,55.31Zm10.72-25.46a18.27,18.27,0,0,0-1.17-7.36,7,7,0,0,0-10.69-3.14,12.77,12.77,0,0,0-4.51,5.94,32,32,0,0,0-2.21,12.84,15.2,15.2,0,0,0,1.24,6.2,6.52,6.52,0,0,0,5.38,4.15,7.74,7.74,0,0,0,6-1.78,13.13,13.13,0,0,0,3.78-5.29A29.7,29.7,0,0,0,212.26,29.85Z" transform="translate(0 0)"/><path class="cls-1" d="M89.17,55.3c-4-.06-7.13-.38-10.07-1.54C73.5,51.55,70,47.52,68.84,41.61a26.81,26.81,0,0,1,4-20.52c3.43-5.15,8.46-8,14.47-9.18a28.56,28.56,0,0,1,13.13.34c7.15,2,11.43,6.6,12.5,14a27.18,27.18,0,0,1-3.64,18.2c-3.47,5.85-8.84,9.08-15.44,10.34C92,55.12,90.12,55.2,89.17,55.3ZM100,29.86a18.9,18.9,0,0,0-1.25-7.49c-2.33-5.3-7.71-5.06-10.64-3a12.49,12.49,0,0,0-4.28,5.44,30.62,30.62,0,0,0-2.35,14.55,15.71,15.71,0,0,0,1,4.64c1.75,4.49,6.61,5.94,10.67,3.31a11.73,11.73,0,0,0,4.14-4.9A29.39,29.39,0,0,0,100,29.86Z" transform="translate(0 0)"/><path class="cls-1" d="M48.47,54.44c-1.54,0-3.08,0-4.61,0-.82,0-1-.21-.92-1q.75-6.48,1.51-13c.42-3.55.85-7.1,1.27-10.65,1-8.5,5.69-13.92,13.85-16.36a34.2,34.2,0,0,1,10.16-1.29c.65,0,.91.25.85.88-.15,1.67-.33,3.35-.52,5-.06.58-.5.7-1,.73a12.75,12.75,0,0,0-7.55,3,12.92,12.92,0,0,0-4.7,8.78c-.64,5.64-1.32,11.27-2,16.91-.23,2-.44,4-.66,5.95-.1.88-.26,1-1.15,1C51.5,54.45,50,54.44,48.47,54.44Z" transform="translate(0 0)"/><text class="cls-2" transform="translate(282.05 48.54)">plus</text></g></g></svg>