<svg xmlns="http://www.w3.org/2000/svg" viewBox="0 0 262.32 252.13"><defs><style>.cls-1{fill:#005928;}</style></defs><g id="Camada_2" data-name="Camada 2"><g id="Camada_1-2" data-name="Camada 1"><path class="cls-1" d="M253.16,101.58c-2.68-4.51-5.22-8.77-6.6-13-1.46-4.51-1.95-9.61-2.47-15-.83-8.63-1.69-17.55-6.81-24.6s-13.44-10.69-21.43-14.14c-4.94-2.14-9.61-4.16-13.38-6.9s-7-6.48-10.53-10.48c-5.78-6.58-11.75-13.39-20.24-16.15-8.13-2.64-16.8-.71-25.19,1.15C141.36,3.58,136,4.76,131.16,4.76S121,3.58,115.81,2.44C107.42.58,98.75-1.35,90.62,1.29c-8.49,2.76-14.46,9.57-20.24,16.15-3.51,4-6.83,7.78-10.53,10.48a37.89,37.89,0,0,1-4.54,2.79,3.84,3.84,0,0,0,3.62,6.78,45.86,45.86,0,0,0,5.45-3.36c4.39-3.2,8.15-7.48,11.78-11.63C81.48,16.44,86.51,10.71,93,8.6c6.14-2,13.44-.37,21.16,1.34,5.55,1.23,11.29,2.5,17,2.5s11.46-1.27,17-2.5c7.73-1.71,15-3.33,21.16-1.34,6.48,2.11,11.51,7.84,16.83,13.9,3.64,4.15,7.4,8.43,11.79,11.63s9.74,5.53,14.85,7.74c7.37,3.19,14.32,6.2,18.26,11.61s4.62,12.86,5.38,20.82c.54,5.57,1.09,11.34,2.82,16.64,1.64,5.06,4.52,9.9,7.3,14.57,4.15,7,8.08,13.57,8.08,20.56s-3.93,13.58-8.08,20.55c-2.78,4.68-5.66,9.51-7.3,14.57-1.73,5.31-2.28,11.07-2.82,16.65-.76,7.95-1.49,15.46-5.38,20.81s-10.9,8.43-18.26,11.61c-5.11,2.21-10.4,4.5-14.86,7.74s-8.14,7.48-11.78,11.63c-5.32,6.06-10.35,11.79-16.83,13.9-6.14,2-13.43.38-21.16-1.34-5.55-1.23-11.29-2.5-17-2.5s-11.46,1.27-17,2.5c-7.73,1.72-15,3.33-21.16,1.34-6.48-2.11-11.51-7.84-16.83-13.9-3.64-4.15-7.4-8.43-11.79-11.63s-9.74-5.53-14.85-7.74c-7.36-3.19-14.32-6.19-18.26-11.61s-4.62-12.86-5.38-20.81c-.54-5.58-1.09-11.34-2.82-16.65-1.64-5.06-4.52-9.89-7.3-14.57-4.15-7-8.07-13.56-8.07-20.55s3.92-13.58,8.07-20.56c2.79-4.67,5.66-9.51,7.31-14.57,1.72-5.3,2.27-11.07,2.81-16.64.77-8,1.49-15.47,5.38-20.81,2.24-3.08,5.6-5.63,10.89-8.27a3.84,3.84,0,0,0-3.43-6.88C34.37,40.51,28.9,43.67,25,49c-5.12,7-6,16-6.81,24.6-.52,5.4-1,10.5-2.47,15-1.38,4.24-3.92,8.5-6.6,13C4.66,109.14,0,117,0,126.07S4.66,143,9.16,150.56c2.68,4.5,5.22,8.76,6.6,13,1.46,4.51,2,9.61,2.47,15,.83,8.63,1.69,17.56,6.81,24.6s13.44,10.69,21.43,14.14c4.94,2.14,9.61,4.16,13.38,6.91s7,6.47,10.53,10.48c5.78,6.58,11.75,13.38,20.24,16.14a28.07,28.07,0,0,0,8.75,1.29c5.45,0,11-1.23,16.44-2.43,5.15-1.14,10.47-2.32,15.35-2.32s10.2,1.18,15.35,2.32c8.39,1.86,17.06,3.78,25.19,1.14,8.49-2.76,14.46-9.56,20.24-16.14,3.51-4,6.83-7.79,10.53-10.48s8.44-4.77,13.38-6.91c8-3.45,16.25-7,21.43-14.14s6-16,6.81-24.6c.52-5.4,1-10.5,2.47-15,1.38-4.24,3.92-8.5,6.6-13,4.5-7.57,9.16-15.39,9.16-24.49s-4.66-16.93-9.16-24.49Z"/><path class="cls-1" d="M36.92,95.45c-1.09,3.36-3.13,6.77-5.28,10.39-3.71,6.22-7.53,12.64-7.53,20.23s3.82,14,7.53,20.22a55.44,55.44,0,0,1,5.28,10.4,57.94,57.94,0,0,1,2,12c.68,7.09,1.39,14.43,5.66,20.3s11.1,8.86,17.67,11.7c4,1.72,7.72,3.34,10.71,5.52s5.59,5.17,8.41,8.39c4.75,5.41,9.66,11,16.73,13.3a23.57,23.57,0,0,0,7.32,1.08c4.49,0,9-1,13.48-2s8.41-1.87,12.29-1.87,8,.91,12.29,1.87c6.89,1.53,14,3.11,20.8.91,7.07-2.3,12-7.89,16.72-13.3,2.83-3.22,5.49-6.26,8.42-8.39s6.74-3.8,10.71-5.52c6.57-2.84,13.35-5.77,17.67-11.7s5-13.21,5.66-20.3a57.94,57.94,0,0,1,2-12c1.09-3.36,3.13-6.78,5.28-10.4,3.71-6.21,7.53-12.64,7.53-20.22s-3.82-14-7.53-20.23a55.37,55.37,0,0,1-5.28-10.39,58,58,0,0,1-2-12c-.68-7.09-1.39-14.42-5.66-20.29s-11.1-8.87-17.67-11.71c-4-1.72-7.72-3.34-10.71-5.52s-5.59-5.17-8.42-8.38c-4.74-5.41-9.65-11-16.72-13.3-6.78-2.2-13.91-.62-20.8.91C139.12,26.09,135,27,131.16,27s-8-.91-12.29-1.86c-6.89-1.53-14-3.11-20.8-.91-7.07,2.3-12,7.89-16.73,13.3-2.82,3.21-5.48,6.25-8.41,8.38s-6.74,3.8-10.71,5.52c-6.57,2.84-13.36,5.78-17.67,11.71s-5,13.2-5.66,20.29a58,58,0,0,1-2,12Zm9.62-11.28c.61-6.35,1.19-12.34,4.22-16.51S59.39,61,65.27,58.48c4.18-1.81,8.5-3.68,12.18-6.35s6.7-6.15,9.67-9.54c4.25-4.84,8.26-9.41,13.33-11.05,4.78-1.56,10.6-.27,16.76,1.1,4.54,1,9.23,2,14,2s9.41-1,14-2c6.16-1.37,12-2.66,16.77-1.1,5.06,1.64,9.07,6.21,13.32,11.05,3,3.39,6.05,6.9,9.67,9.54s8,4.54,12.18,6.35c5.88,2.54,11.43,5,14.51,9.18s3.61,10.16,4.22,16.51c.44,4.56.89,9.27,2.32,13.65,1.35,4.18,3.71,8.13,6,12,3.32,5.57,6.45,10.83,6.45,16.3s-3.13,10.72-6.45,16.29c-2.27,3.82-4.63,7.77-6,11.95-1.43,4.38-1.88,9.1-2.32,13.65-.61,6.35-1.19,12.34-4.22,16.52s-8.63,6.63-14.51,9.17c-4.18,1.81-8.5,3.68-12.18,6.36s-6.7,6.14-9.67,9.53c-4.25,4.84-8.26,9.41-13.32,11.06-4.79,1.55-10.61.26-16.77-1.11-4.54-1-9.23-2-14-2s-9.41,1-14,2c-6.16,1.37-12,2.66-16.76,1.11-5.07-1.65-9.08-6.22-13.33-11.06-3-3.39-6.05-6.9-9.67-9.53s-8-4.55-12.18-6.36c-5.88-2.54-11.43-4.94-14.51-9.17S47.15,174.31,46.54,168c-.44-4.55-.89-9.27-2.31-13.64a60.53,60.53,0,0,0-6-12c-3.32-5.57-6.45-10.83-6.45-16.29s3.13-10.73,6.45-16.3c2.27-3.82,4.63-7.77,6-12,1.42-4.38,1.87-9.09,2.31-13.65Z"/><path class="cls-1" d="M117.32,177h-.67A20,20,0,0,1,102,169.82l-19.08-23A12,12,0,0,1,84.47,130l5.35-4.45a12,12,0,0,1,16.9,1.56l9.61,11.56a2.16,2.16,0,0,0,3.23.11l.1-.1,49.08-47.89a12,12,0,0,1,16.91-.36l5,4.8a12,12,0,0,1,.41,17l-.08.09L164.93,138a3.84,3.84,0,0,1-5.4-5.47l26-25.73a4.33,4.33,0,0,0-.18-6.07l-5-4.79a4.25,4.25,0,0,0-3.08-1.19,4.32,4.32,0,0,0-3,1.33.47.47,0,0,1-.1.1l-49.08,47.9a9.85,9.85,0,0,1-14.65-.56L100.81,132a4.32,4.32,0,0,0-6.08-.56l-5.35,4.44a4.32,4.32,0,0,0-.56,6.08l19.08,23a12.26,12.26,0,0,0,18.29.62l.08-.08,21.54-21.3a3.85,3.85,0,1,1,5.41,5.47l-21.51,21.25A19.93,19.93,0,0,1,117.32,177Z"/></g></g></svg>