<svg xmlns="http://www.w3.org/2000/svg" viewBox="0 0 287.53 262.32"><defs><style>.cls-1{fill:#005928;}</style></defs><g id="Camada_2" data-name="Camada 2"><g id="Camada_1-2" data-name="Camada 1"><path class="cls-1" d="M268.09,0H19.44A19.46,19.46,0,0,0,0,19.44v165.5a19.47,19.47,0,0,0,19.44,19.45H52.79a4.22,4.22,0,0,0,0-8.43H19.44a11,11,0,0,1-11-11V171.88a19.37,19.37,0,0,0,11,3.43H268.09a19.35,19.35,0,0,0,11-3.43v13.06a11,11,0,0,1-11,11H69.64a4.22,4.22,0,0,0,0,8.43h52.55l-12.14,28.17h-7.63a18.2,18.2,0,0,0-18.17,18.18v2.73a8.86,8.86,0,0,0,8.85,8.85H194.44a8.86,8.86,0,0,0,8.85-8.85v-2.73a18.21,18.21,0,0,0-18.18-18.18h-7.62l-12.14-28.17H268.09a19.47,19.47,0,0,0,19.44-19.45V19.44A19.46,19.46,0,0,0,268.09,0ZM194.86,250.74v2.73a.42.42,0,0,1-.42.43H93.1a.43.43,0,0,1-.43-.43v-2.73a9.76,9.76,0,0,1,9.75-9.75h82.69a9.76,9.76,0,0,1,9.75,9.75Zm-26.55-18.18H119.22l12.14-28.17h24.81Zm99.78-65.67H19.44a11,11,0,0,1-11-11V19.44a11,11,0,0,1,11-11H268.09a11,11,0,0,1,11,11V155.87A11,11,0,0,1,268.09,166.89Z"/><path class="cls-1" d="M133.44,41.66l6.11-3.48V53A4.22,4.22,0,0,0,148,53V38.18l6.12,3.48a4.21,4.21,0,0,0,4.16-7.32c-13.6-7.74-12.53-7.15-13-7.32a4.21,4.21,0,0,0-3.59.25h0l-12.41,7.06a4.21,4.21,0,1,0,4.17,7.32Z"/><path class="cls-1" d="M99.43,122.48l-12.82,7.39v-7a4.21,4.21,0,1,0-8.42,0c0,15-.64,16.4,2.14,17.95L92.64,148a4.21,4.21,0,0,0,4.25-7.28l-6.1-3.55,12.85-7.4a4.21,4.21,0,0,0-4.21-7.3Z"/><path class="cls-1" d="M205.13,118.66a4.22,4.22,0,0,0-4.21,4.22v7l-12.82-7.39a4.21,4.21,0,1,0-4.2,7.3l12.84,7.4-6.09,3.55a4.21,4.21,0,0,0,2.12,7.85,4.14,4.14,0,0,0,2.12-.57c11.45-6.88,13.64-7.14,14.32-9.82.28-1.09,0-1,.14-15.31A4.22,4.22,0,0,0,205.13,118.66Z"/><path class="cls-1" d="M176.53,80.4,145.87,62.7a4.22,4.22,0,0,0-4.21,0L111,80.4a4.2,4.2,0,0,0-2.11,3.65c0,.1,0,.21,0,.31v35.09a4.19,4.19,0,0,0,2.11,3.64l30.33,17.51.28.19a4.16,4.16,0,0,0,2.1.56h0a4.13,4.13,0,0,0,2.1-.56l.28-.19,30.34-17.51a4.2,4.2,0,0,0,2.1-3.64V84.36c0-.1,0-.21,0-.31a4.21,4.21,0,0,0-2.1-3.65Zm-32.76-9.19L166,84,143.77,96.87,121.55,84ZM117.35,91.36l22.18,12.81v25.65L117.35,117ZM148,129.82V104.17l22.19-12.81V117Z"/><path class="cls-1" d="M46.61,24.28H27a8.16,8.16,0,0,0-8.15,8.14v99.72A8.16,8.16,0,0,0,27,140.29H46.61a8.16,8.16,0,0,0,8.14-8.15V32.42A8.15,8.15,0,0,0,46.61,24.28Zm-.28,107.58H27.24V32.7H46.33Z"/><path class="cls-1" d="M35.19,53.52h3.19a4.22,4.22,0,0,0,0-8.43H35.19a4.22,4.22,0,0,0,0,8.43Z"/><path class="cls-1" d="M35.19,75.5h3.19a4.21,4.21,0,0,0,0-8.42H35.19a4.21,4.21,0,1,0,0,8.42Z"/><path class="cls-1" d="M35.19,97.49h3.19a4.22,4.22,0,0,0,0-8.43H35.19a4.22,4.22,0,0,0,0,8.43Z"/><path class="cls-1" d="M35.19,119.47h3.19a4.21,4.21,0,0,0,0-8.42H35.19a4.21,4.21,0,1,0,0,8.42Z"/><path class="cls-1" d="M262,18.88H208a7,7,0,0,0-7,7V71.7a7,7,0,0,0,7,7h54a7,7,0,0,0,7-7V25.9A7,7,0,0,0,262,18.88Zm-1.4,51.41H209.39v-43h51.22Z"/><path class="cls-1" d="M221.52,45.71h12.92a4.21,4.21,0,1,0,0-8.42H221.52a4.21,4.21,0,0,0,0,8.42Z"/><path class="cls-1" d="M221.52,60.31h27a4.21,4.21,0,1,0,0-8.42h-27a4.21,4.21,0,0,0,0,8.42Z"/></g></g></svg>