<svg id="Camada_1" xmlns="http://www.w3.org/2000/svg" viewBox="0 0 351.2 258.2"><style>.st0{fill:#1F86A7;}</style><path class="st0" d="M272.1 76.2c-15.1-7.6-33.7-8.8-46.2-3.1v43.4H302c-4.5-23-18.6-34.6-29.9-40.3zM336.8 156.7v-3.5c0-8.4-3.2-16.2-9-21.9-5.7-5.6-13.6-8.7-22.1-8.8h-.6H226v65l80.2-.2c16.9 0 30.6-13.7 30.6-30.6zM220 71.3c-.1-8.7-6.6-23.8-18.9-35.8-8.9-8.7-24.2-19.1-46.2-19.1h-5.4v100.2H220V71.3zM67.3 187.6h76.2v-39.2H16.2c6 22.5 26.6 39.2 51.1 39.2zM143.5 16.6c-36.3 2.3-61.2 30-67.7 57.2h67.7V16.6zM143.5 79.8H65.8c-28.8.1-51.4 23.5-51.4 53.2v1.7c0 2.6.2 5.2.6 7.7.2 0 .4-.1.5-.1h128V79.8zM149.5 122.6H220v65h-70.5z"/><g><path class="st0" d="M50.5 217.8c.2.2.4.4.4.6 0 .1-.1.3-.2.5l-.2.2c-.1.1-.2.2-.3.4l-.3.3c-.1.1-.2.2-.3.2h-.1-.2c-.1 0-.2-.1-.3-.1-1.3-1-2.6-1.7-4.1-2.3-1.4-.5-3-.8-4.6-.8-1.3 0-2.6.2-3.9.5-1.2.3-2.4.8-3.5 1.5-1.1.6-2.1 1.4-2.9 2.3-.9.9-1.6 1.8-2.2 2.9-.6 1.1-1.1 2.2-1.4 3.4-.3 1.2-.5 2.5-.5 3.7 0 1.3.2 2.6.5 3.8.3 1.2.8 2.3 1.5 3.4.6 1.1 1.4 2 2.3 2.9.9.9 1.8 1.6 2.9 2.2 1.1.6 2.2 1.1 3.4 1.4 1.2.3 2.4.5 3.7.5 3 0 5.9-1 8.7-3l.5-.3c.1-.1.3-.1.4-.1.1 0 .2.1.4.2l.4.4c.1.2.2.3.3.5.1.2.1.4.1.5 0 .1 0 .2-.1.3l-.3.3c-1.4 1.1-3 2-4.8 2.6-1.7.6-3.6.9-5.6.9-2.3 0-4.5-.4-6.5-1.3s-3.8-2.1-5.3-3.6-2.7-3.3-3.6-5.3c-.9-2-1.3-4.2-1.3-6.5 0-1.5.2-3 .6-4.4.4-1.4 1-2.7 1.7-4 .7-1.2 1.6-2.4 2.6-3.4s2.1-1.9 3.4-2.6c1.2-.7 2.6-1.3 4-1.7 1.4-.4 2.9-.6 4.4-.6 2 0 3.8.3 5.5 1 1.7.6 3.4 1.5 4.8 2.6zM52.5 231c0-1.5.2-3 .6-4.4.4-1.4 1-2.8 1.7-4 .7-1.2 1.6-2.4 2.6-3.4s2.1-1.9 3.4-2.6c1.2-.7 2.6-1.3 4-1.7 1.4-.4 2.9-.6 4.4-.6s3 .2 4.4.6c1.4.4 2.8 1 4 1.7 1.2.7 2.4 1.6 3.4 2.6s1.9 2.1 2.6 3.4c.7 1.2 1.3 2.6 1.7 4 .4 1.4.6 2.9.6 4.4 0 1.5-.2 3-.6 4.4-.4 1.4-1 2.8-1.7 4-.7 1.2-1.6 2.4-2.6 3.4s-2.1 1.9-3.4 2.6c-1.2.7-2.6 1.3-4 1.7-1.4.4-2.9.6-4.4.6s-3-.2-4.4-.6c-1.4-.4-2.8-1-4-1.7-1.2-.7-2.4-1.6-3.4-2.6s-1.9-2.1-2.6-3.4c-.7-1.2-1.3-2.6-1.7-4-.4-1.4-.6-2.9-.6-4.4zm2.4 0c0 2 .4 3.8 1.1 5.5.7 1.7 1.8 3.2 3.1 4.5 1.3 1.3 2.8 2.3 4.5 3.1 1.7.7 3.6 1.1 5.5 1.1 1.3 0 2.6-.2 3.8-.5 1.2-.3 2.4-.8 3.4-1.4 1.1-.6 2-1.4 2.9-2.2.9-.9 1.6-1.8 2.2-2.9.6-1.1 1.1-2.2 1.4-3.4.3-1.2.5-2.5.5-3.8 0-2-.4-3.8-1.1-5.5-.8-1.7-1.8-3.3-3.1-4.5-1.3-1.3-2.8-2.3-4.5-3.1-1.7-.8-3.6-1.1-5.5-1.1-1.3 0-2.6.2-3.8.5-1.2.3-2.3.8-3.4 1.4-1.1.6-2 1.4-2.9 2.2-.9.9-1.6 1.8-2.2 2.9-.6 1.1-1.1 2.2-1.4 3.4-.3 1.2-.5 2.5-.5 3.8zM115.7 226.9c0 1-.1 2-.4 3-.2 1-.6 1.9-1.1 2.8-.5.9-1.1 1.7-1.8 2.5s-1.5 1.4-2.4 2l4.2 8.9v.4c0 .2-.1.3-.2.4-.1.1-.3.2-.5.2h-1.3c-.3 0-.5-.2-.6-.5l-4-8.4c-1.4.5-2.9.8-4.7.8h-9v7.2c0 .6-.3.8-.9.8h-.8c-.6 0-.8-.3-.8-.8v-30.9c0-.2.1-.5.2-.6.2-.2.3-.3.5-.3h10.7c1.9 0 3.7.3 5.2 1 1.6.7 2.9 1.6 4 2.8 1.1 1.2 1.9 2.5 2.5 3.9.9 1.7 1.2 3.3 1.2 4.8zm-12.6 9.8c1.6 0 3-.3 4.3-.8 1.2-.5 2.3-1.3 3.2-2.2.9-.9 1.5-2 2-3.1.5-1.2.7-2.4.7-3.6 0-1.2-.2-2.5-.7-3.6-.5-1.2-1.1-2.2-2-3.2-.9-.9-1.9-1.7-3.2-2.2-1.2-.6-2.7-.8-4.3-.8h-9v19.6h9zM141.7 214.6c.2 0 .5.1.6.2.2.1.2.3.2.6v.8c0 .2-.1.5-.2.6-.1.2-.4.2-.6.2h-9.3v29.4c0 .5-.3.8-.8.8h-.8c-.5 0-.8-.3-.8-.8V217h-9.6c-.5 0-.8-.3-.8-.8v-.8c0-.5.3-.8.8-.8h21.3zM169.1 214.6c.6 0 .8.3.8.8v.8c0 .2-.1.4-.2.6-.1.1-.3.2-.6.2h-19.6v16.4h15.8c.2 0 .5.1.6.2.2.1.2.3.2.6v.8c0 .2-.1.4-.2.6-.1.1-.4.2-.6.2h-15.8v9h19.9c.6 0 .8.3.8.8v.8c0 .5-.3.8-.8.8h-21.7c-.2 0-.4-.1-.5-.2-.1-.1-.2-.3-.2-.6v-31.1c0-.3.1-.6.3-.6.2-.1.4-.1.6-.1h21.2zM201.1 217.8c.2.2.4.4.4.6 0 .1-.1.3-.2.5l-.2.2c-.1.1-.2.2-.3.4l-.3.3c-.1.1-.2.2-.3.2h-.1-.2c-.1 0-.2-.1-.3-.1-1.3-1-2.6-1.7-4.1-2.3-1.4-.5-3-.8-4.6-.8-1.3 0-2.6.2-3.9.5-1.2.3-2.4.8-3.5 1.5-1.1.6-2.1 1.4-2.9 2.3-.9.9-1.6 1.8-2.2 2.9-.6 1.1-1.1 2.2-1.4 3.4-.3 1.2-.5 2.5-.5 3.7 0 1.3.2 2.6.5 3.8.3 1.2.8 2.3 1.5 3.4.6 1.1 1.4 2 2.3 2.9.9.9 1.8 1.6 2.9 2.2 1.1.6 2.2 1.1 3.4 1.4 1.2.3 2.4.5 3.7.5 3 0 5.9-1 8.7-3l.5-.3c.1-.1.3-.1.4-.1.1 0 .2.1.4.2l.4.4c.1.2.2.3.3.5.1.2.1.4.1.5 0 .1 0 .2-.1.3l-.3.3c-1.4 1.1-3 2-4.8 2.6-1.7.6-3.6.9-5.6.9-2.3 0-4.5-.4-6.5-1.3s-3.8-2.1-5.3-3.6-2.7-3.3-3.6-5.3c-.9-2-1.3-4.2-1.3-6.5 0-1.5.2-3 .6-4.4.4-1.4 1-2.7 1.7-4 .7-1.2 1.6-2.4 2.6-3.4s2.1-1.9 3.4-2.6c1.2-.7 2.6-1.3 4-1.7 1.4-.4 2.9-.6 4.4-.6 2 0 3.8.3 5.5 1 1.7.6 3.3 1.5 4.8 2.6zM225.3 244.8c.2 0 .4.1.6.2.1.1.2.3.2.6v.8c0 .2-.1.4-.2.6-.1.1-.3.2-.6.2h-17.9c-.2 0-.4-.1-.6-.2-.1-.1-.2-.3-.2-.6v-31c0-.2.1-.4.2-.6.1-.1.4-.2.6-.2h.8c.2 0 .4.1.6.2.1.1.2.3.2.6v29.4h16.3zM228 231c0-1.5.2-3 .6-4.4.4-1.4 1-2.8 1.7-4 .7-1.2 1.6-2.4 2.6-3.4s2.1-1.9 3.4-2.6c1.2-.7 2.6-1.3 4-1.7 1.4-.4 2.9-.6 4.4-.6s3 .2 4.4.6c1.4.4 2.8 1 4 1.7 1.2.7 2.4 1.6 3.4 2.6s1.9 2.1 2.6 3.4c.7 1.2 1.3 2.6 1.7 4 .4 1.4.6 2.9.6 4.4 0 1.5-.2 3-.6 4.4-.4 1.4-1 2.8-1.7 4-.7 1.2-1.6 2.4-2.6 3.4s-2.1 1.9-3.4 2.6c-1.2.7-2.6 1.3-4 1.7-1.4.4-2.9.6-4.4.6s-3-.2-4.4-.6c-1.4-.4-2.8-1-4-1.7-1.2-.7-2.4-1.6-3.4-2.6s-1.9-2.1-2.6-3.4c-.7-1.2-1.3-2.6-1.7-4-.4-1.4-.6-2.9-.6-4.4zm2.5 0c0 2 .4 3.8 1.1 5.5.7 1.7 1.8 3.2 3.1 4.5 1.3 1.3 2.8 2.3 4.5 3.1 1.7.7 3.6 1.1 5.5 1.1 1.3 0 2.6-.2 3.8-.5 1.2-.3 2.4-.8 3.4-1.4 1.1-.6 2-1.4 2.9-2.2.9-.9 1.6-1.8 2.2-2.9.6-1.1 1.1-2.2 1.4-3.4.3-1.2.5-2.5.5-3.8 0-2-.4-3.8-1.1-5.5-.8-1.7-1.8-3.3-3.1-4.5-1.3-1.3-2.8-2.3-4.5-3.1-1.7-.8-3.6-1.1-5.5-1.1-1.3 0-2.6.2-3.8.5-1.2.3-2.3.8-3.4 1.4-1.1.6-2 1.4-2.9 2.2-.9.9-1.6 1.8-2.2 2.9-.6 1.1-1.1 2.2-1.4 3.4-.4 1.2-.5 2.5-.5 3.8zM268.5 234.2c0 1.6.3 3 .8 4.4.5 1.4 1.3 2.5 2.3 3.6 1 1 2.1 1.8 3.5 2.4 1.3.6 2.8.9 4.4.9 1.6 0 3.1-.3 4.4-.9 1.3-.6 2.5-1.4 3.5-2.4s1.7-2.2 2.3-3.6c.5-1.4.8-2.8.8-4.4v-18.8c0-.2.1-.4.2-.6.2-.1.4-.2.6-.2h.7c.2 0 .5.1.6.2.2.1.3.3.3.6v19.1c0 1.9-.4 3.7-1.1 5.3-.7 1.6-1.7 3-2.9 4.2-1.2 1.2-2.6 2.1-4.3 2.8-1.6.7-3.4 1-5.2 1-1.2 0-2.4-.2-3.6-.5-1.1-.3-2.2-.8-3.2-1.4-1-.6-1.9-1.3-2.7-2.1-.8-.8-1.5-1.7-2.1-2.7-.6-1-1-2.1-1.4-3.2-.3-1.1-.5-2.3-.5-3.5v-19c0-.2.1-.4.2-.6.1-.2.3-.2.6-.2h.8c.2 0 .4.1.6.2.2.1.2.3.2.6v18.8zM299.5 215.4c0-.2.1-.4.2-.6.1-.1.3-.2.5-.2h10.6c1.5 0 3 .2 4.3.6 1.4.4 2.7.9 3.9 1.7 1.2.7 2.3 1.6 3.3 2.5 1 1 1.8 2.1 2.5 3.3.7 1.2 1.2 2.5 1.6 3.9.4 1.4.6 2.8.6 4.3s-.2 3-.6 4.3c-.4 1.4-.9 2.7-1.6 3.9-.7 1.2-1.6 2.3-2.6 3.3s-2.1 1.8-3.3 2.5c-1.2.7-2.5 1.2-3.9 1.6-1.4.4-2.9.6-4.4.6h-10.3c-.2 0-.4-.1-.6-.2-.2-.1-.3-.3-.3-.5v-31zm11.1 29.5c1.3 0 2.6-.2 3.8-.5 1.2-.3 2.3-.8 3.4-1.4 1-.6 2-1.4 2.8-2.2.9-.9 1.6-1.8 2.2-2.8.6-1 1.1-2.2 1.4-3.3.3-1.2.5-2.4.5-3.7 0-2-.4-3.8-1.1-5.5-.7-1.7-1.8-3.2-3-4.4-1.3-1.2-2.8-2.2-4.5-2.9-1.7-.7-3.5-1-5.4-1H302v27.9h8.6z"/></g></svg>