<svg xmlns="http://www.w3.org/2000/svg" width="1068.74" height="222.88" viewBox="0 0 1068.74 222.88">
  <defs>
    <style>
      .cls-1, .cls-2 {
        fill: #3f6734;
      }

      .cls-2, .cls-3, .cls-4 {
        fill-rule: evenodd;
      }

      .cls-3 {
        fill: #E66142;
      }

      .cls-4 {
        fill: #52542c;
      }
    </style>
  </defs>
  <title>Ativo 1</title>
  <g id="Camada_2" data-name="Camada 2">
    <g id="Camada_1-2" data-name="Camada 1">
      <g>
        <rect class="cls-1" x="550.56" width="7.72" height="185.16"/>
        <path class="cls-2" d="M85,160.11a11.77,11.77,0,0,0-5-1.05c-5.85,0-8.69,4.31-8.69,8.84,0,4.23,2.82,6.24,6.57,6.24a8.93,8.93,0,0,0,2.29-.25L81.41,168h-4l.55-2.27h6.71L82.41,176a21.6,21.6,0,0,1-5,.57c-5.14,0-9.06-2.7-9.06-8.81,0-4.72,3.26-11.13,11.57-11.13a14.55,14.55,0,0,1,5.91,1.11Z"/>
        <path class="cls-2" d="M97.11,165.25H99.3c2,0,4.89-.63,4.89-3.2,0-2-1.14-2.65-3.26-2.65H98.36Zm-1-8.29H99.9c2.71,0,7.22,0,7.22,4.7a5.45,5.45,0,0,1-4.7,5.22c1.46.91,1.87,3.81,2.26,5.31l1,4.05h-2.92l-1.16-5.06c-.72-3.08-1.19-3.5-2.63-3.5H96.57l-1.8,8.56H92Z"/>
        <path class="cls-2" d="M130.16,168.29c-1.3,5.85-4,8.28-8.45,8.28-5.36,0-6.79-3.75-6.79-5.82a24.07,24.07,0,0,1,.66-4.31l2-9.48h2.77L117.9,168.6a9.38,9.38,0,0,0-.22,1.7c0,2.52,1.79,3.84,4.19,3.84,4.1,0,5.2-4.17,5.89-7.4l2.13-9.78h2.76Z"/>
        <path class="cls-2" d="M142.91,166.11h1.46c2.85,0,5.8-.58,5.8-3.7,0-2.68-2-3-4.36-3h-1.44Zm-.8-9.15h4.8c2.87,0,6.19,1.19,6.19,5s-2.79,6.55-8,6.55h-2.76l-1.68,7.7h-2.76Z"/>
        <path class="cls-2" d="M167.06,174.14c4.76,0,7.56-5.11,7.56-9.31,0-3.69-1.65-5.77-5-5.77-4.72,0-7.88,4.51-7.88,9.42,0,3.43,1.8,5.66,5.28,5.66m2.68-17.51c4.91,0,7.82,2.9,7.82,7.82,0,6.1-3.62,12.12-10.61,12.12-5.3,0-8.1-2.84-8.1-8.17s3.82-11.77,10.89-11.77"/>
        <polygon class="cls-2" points="204.27 156.96 208.42 156.96 211.04 172.73 220.43 156.96 224.97 156.96 220.84 176.24 218.08 176.24 221.62 159.73 221.56 159.73 211.65 176.24 208.97 176.24 206.29 159.73 206.24 159.73 202.54 176.24 199.85 176.24 204.27 156.96"/>
        <path class="cls-2" d="M241.91,159.94l-5.83,9.18h7.65Zm-.89-3h2.74L248,176.24h-2.84l-1-4.86h-9.47l-3.1,4.86h-3.06Z"/>
        <path class="cls-2" d="M258.38,173.81h2.93c5.47,0,8.87-3.53,8.87-8.75,0-3.32-1.53-5.66-7.13-5.66h-1.6Zm.78-16.85h4.25c6.79,0,9.69,3.46,9.69,7.8,0,6.84-4.23,11.48-12.28,11.48h-5.75Z"/>
        <path class="cls-2" d="M293.08,176.05a11.7,11.7,0,0,1-3.53.52c-5.14,0-9.06-2.7-9.06-8.81,0-4.72,3.26-11.13,11.58-11.13a12.44,12.44,0,0,1,4.58.89l-.8,2.37a9.66,9.66,0,0,0-3.73-.83c-5.85,0-8.7,4.31-8.7,8.84,0,4.23,2.82,6.24,6.57,6.24a9.24,9.24,0,0,0,3.45-.66Z"/>
        <path class="cls-2" d="M310.17,174.14c4.75,0,7.56-5.11,7.56-9.31,0-3.69-1.65-5.77-5-5.77-4.73,0-7.88,4.51-7.88,9.42,0,3.43,1.8,5.66,5.28,5.66m2.68-17.51c4.92,0,7.81,2.9,7.81,7.82,0,6.1-3.61,12.12-10.6,12.12-5.3,0-8.1-2.84-8.1-8.17s3.82-11.77,10.89-11.77"/>
        <polygon class="cls-2" points="331.59 156.96 335.73 156.96 338.35 172.73 347.75 156.96 352.27 156.96 348.16 176.24 345.4 176.24 348.93 159.73 348.88 159.73 338.97 176.24 336.28 176.24 333.6 159.73 333.55 159.73 329.85 176.24 327.17 176.24 331.59 156.96"/>
        <path class="cls-2" d="M362.73,166.11h1.46c2.85,0,5.8-.58,5.8-3.7,0-2.68-2-3-4.36-3h-1.44Zm-.8-9.15h4.81c2.87,0,6.18,1.19,6.18,5s-2.79,6.55-8,6.55h-2.76l-1.69,7.7h-2.76Z"/>
        <polygon class="cls-2" points="382.03 156.96 392.49 156.96 391.94 159.4 384.32 159.4 383.07 165.03 390.23 165.03 389.76 167.46 382.52 167.46 381.11 173.81 389.21 173.81 388.68 176.24 377.8 176.24 382.03 156.96"/>
        <polygon class="cls-2" points="401.76 156.96 405.4 156.96 410.84 173.12 410.9 173.12 414.32 156.96 416.95 156.96 412.75 176.24 409.19 176.24 403.75 160.22 403.69 160.22 400.4 176.24 397.75 176.24 401.76 156.96"/>
        <path class="cls-2" d="M277.09,15.45H247.34L202.93,98.34,181.71,15.45h-30.6l-31,94.74,4.52-32.33H72.58L69.77,98.69H93.9l-3.3,23.38a80.44,80.44,0,0,1-19.71,2.45q-19.14,0-30.49-9.57T29,88.41q0-22.25,18.29-36.29t47.52-14a133.05,133.05,0,0,1,35,4.81L133,18.56q-16.4-4.81-38.18-4.81Q50.06,13.75,25,36T0,89.45q0,26.21,19.32,42.8t55,16.59a202.16,202.16,0,0,0,33.91-2.41l-.23.71h28.15l29.87-91.53,23.53,91.53h13.33l48.83-89,4.38,89h27.16Z"/>
        <polygon class="cls-3" points="350.34 13.75 320.72 13.75 256.12 147.15 286.91 147.15 331.39 41.37 344.79 147.15 373.49 147.15 350.34 13.75"/>
        <path class="cls-2" d="M401.26,37.6l-12.13,87.58h26.19q20.64,0,32.23-13t11.59-33q0-18.47-12-30.05T414.74,37.6ZM376.37,15.45h43.74q33,0,50.49,17.91t17.48,46.19q0,29.13-17.86,48.36T426,147.14H358Z"/>
        <polygon class="cls-4" points="133.02 18.56 129.81 42.88 109.18 11.24 133.02 18.56"/>
        <polygon class="cls-3" points="133.02 18.56 129.81 42.88 112.05 7.45 133.02 18.56"/>
        <polygon class="cls-4" points="256.12 147.15 255.9 142.46 281.65 94.41 256.12 147.15"/>
        <polygon class="cls-4" points="364.89 97.62 355.11 147.15 357.99 147.15 364.89 97.62"/>
        <path class="cls-1" d="M899.77,191.63h9.28a9.89,9.89,0,0,1,6.13,1.85q2.36,1.83,2.35,5.85c0,2.75-.72,4.75-2.15,6a8.93,8.93,0,0,1-6.11,1.9h-3.43V215h-6.07Zm6.07,10.7h1a10.59,10.59,0,0,0,3-.32c.91-.24,1.36-1.07,1.36-2.49s-.44-2.35-1.3-2.61a10.73,10.73,0,0,0-3.06-.39h-1Z"/>
        <path class="cls-1" d="M937.46,215h-5.63v-1.77h-.06a4.2,4.2,0,0,1-1.86,1.66,6.58,6.58,0,0,1-2.45.6,1,1,0,0,1-.25,0H927A7.37,7.37,0,0,1,921.2,213,8.6,8.6,0,0,1,919,207a8.69,8.69,0,0,1,2.22-5.93,7.28,7.28,0,0,1,5.74-2.52h.3a1.73,1.73,0,0,1,.32,0,7.14,7.14,0,0,1,2.36.6,5.3,5.3,0,0,1,1.94,1.44v-1.57h5.63Zm-11.73-10.41a3.64,3.64,0,0,0-1,2.52,3.58,3.58,0,0,0,1,2.54,4,4,0,0,0,5.34,0,3.6,3.6,0,0,0,.94-2.55,3.69,3.69,0,0,0-.94-2.53,3.41,3.41,0,0,0-2.68-1.07,3.46,3.46,0,0,0-2.66,1.1"/>
        <path class="cls-1" d="M946.83,201.68h.06a5.13,5.13,0,0,1,2.16-2.1,6.53,6.53,0,0,1,3-.68l1.08,0v5.41a.92.92,0,0,1-.23-.09.92.92,0,0,0-.23-.09,3.57,3.57,0,0,0-.93-.25,7.74,7.74,0,0,0-1-.06q-2.36,0-3.12,1.38a6.8,6.8,0,0,0-.78,3.41V215H941.2V199.09h5.63Z"/>
        <path class="cls-1" d="M972.24,222.88h-5.63v-9.44a4.87,4.87,0,0,1-1.94,1.44,7.6,7.6,0,0,1-2.37.57,1.53,1.53,0,0,1-.3,0h-.31a7.33,7.33,0,0,1-5.76-2.47,8.62,8.62,0,0,1-2.19-5.91,8.72,8.72,0,0,1,2.24-6,7.33,7.33,0,0,1,5.77-2.55H962a1,1,0,0,1,.24,0,6.11,6.11,0,0,1,2.45.64,4.42,4.42,0,0,1,1.85,1.65l.07,0v-1.79h5.63Zm-11.73-18.33a3.64,3.64,0,0,0-1,2.52,3.58,3.58,0,0,0,1,2.54,4,4,0,0,0,5.34,0,3.6,3.6,0,0,0,.94-2.55,3.69,3.69,0,0,0-.94-2.53,3.39,3.39,0,0,0-2.68-1.07,3.45,3.45,0,0,0-2.66,1.1"/>
        <path class="cls-1" d="M981.3,199.09v8.47a5.11,5.11,0,0,0,.54,2.51,3.18,3.18,0,0,0,4.55,0,5,5,0,0,0,.54-2.48v-8.5h5.64v9.56q0,4-2.43,5.4a13.37,13.37,0,0,1-12,0c-1.62-1-2.44-2.75-2.44-5.37v-9.59Z"/>
        <path class="cls-1" d="M1012.46,207.38V208h-11.85a3.61,3.61,0,0,0,.9,2.64,3.52,3.52,0,0,0,2.63.91,3.32,3.32,0,0,0,1.56-.34,2.73,2.73,0,0,0,1.13-1.11h5.41a6,6,0,0,1-3,4.12,10.32,10.32,0,0,1-5.06,1.29,10,10,0,0,1-6.56-2.15,7.62,7.62,0,0,1-2.63-6.26,8,8,0,0,1,2.46-6.22,9,9,0,0,1,6.33-2.26,8.46,8.46,0,0,1,6.42,2.38,9,9,0,0,1,2.27,6.44Zm-5.23-2.66a2.83,2.83,0,0,0-1.13-1.8,3.37,3.37,0,0,0-2.05-.68,3.77,3.77,0,0,0-2.17.63,2.74,2.74,0,0,0-1.17,1.85Z"/>
        <polygon class="cls-1" points="1028.76 196.76 1028.76 191.63 1038.17 191.63 1038.17 214.96 1032.11 214.96 1032.11 196.76 1028.76 196.76"/>
        <path class="cls-1" d="M1055.62,190.7a8.16,8.16,0,0,1,7.23,3.59,15.76,15.76,0,0,1,2.65,7.83c0,.2,0,.4,0,.6s0,.4,0,.6,0,.41,0,.61,0,.39,0,.6a15.75,15.75,0,0,1-2.64,7.81c-1.56,2.37-4,3.55-7.24,3.55s-5.67-1.18-7.23-3.55a15.64,15.64,0,0,1-2.63-7.81c0-.21,0-.41,0-.6s0-.4,0-.61,0-.4,0-.6,0-.4,0-.6a15.66,15.66,0,0,1,2.64-7.83,8.09,8.09,0,0,1,7.22-3.56Zm-2.33,6.68a9.21,9.21,0,0,0-1.19,2.85,15.21,15.21,0,0,0-.27,1.67c0,.54-.07,1-.07,1.39s0,.86.07,1.41a15.17,15.17,0,0,0,.27,1.69,9,9,0,0,0,1.19,2.87,2.75,2.75,0,0,0,4.67,0,9.18,9.18,0,0,0,1.19-2.88,15.17,15.17,0,0,0,.27-1.69c0-.55.07-1,.07-1.41s0-.86-.07-1.4a15.21,15.21,0,0,0-.27-1.67,9,9,0,0,0-1.19-2.85,2.62,2.62,0,0,0-2.34-1.31,2.69,2.69,0,0,0-2.33,1.33"/>
        <path class="cls-2" d="M779.29,24h9.27l0-18.09,13.1,0,0,18.12,13.9,0V34.11l-13.9,0,0,20.29c0,3.68.63,6.27,1.91,7.75s3.45,2.13,6.6,2.13h5.4v10h-12c-4.86,0-8.6-1.34-11.18-4s-3.83-6.6-3.84-11.65l0-24.47-9.28,0Zm-51.74.07,24.61,0c7.43,0,12.89,1.47,16.09,4.35s4.83,7.49,4.84,14.1l0,31.79-13.17,0,0-30.2c0-3.73-.59-6.14-1.72-7.25s-3.48-1.71-6.94-1.7H740.72l0,39.16-13.16,0Zm95.72-.19,22,0c5.16,0,8.88,1.12,11,3s3.1,5.18,3.11,9.84v8.38l-12.52,0V38.61c0-1.94-.4-3.25-1.08-3.94s-2.23-1-4.71-1h-4.62l.05,40.53-13.12,0Zm54.88,25.23c0,4.77,1.1,8.47,3.33,11.15s5.29,4,9.3,4a11.5,11.5,0,0,0,9.21-4c2.23-2.69,3.34-6.39,3.33-11.16S902.2,40.58,900,38a11.42,11.42,0,0,0-9.25-4c-3.94,0-7.06,1.32-9.28,4s-3.31,6.39-3.31,11.11m39,0q0,11.77-7.1,18.88c-4.72,4.66-10.89,6.36-18.9,6.37S876.39,72.68,871.59,68s-7.22-10.95-7.23-18.8,2.35-14.2,7.18-18.93,11.16-6.44,19.19-6.45,14.42,1.69,19.25,6.4,7.13,11,7.14,18.91M645.29,17.81c-5.92,0-10.14,1.87-12.76,5.67s-3.88,10-3.87,18.66c0,7.54,1.29,12.81,3.77,15.87s6.8,4.6,12.92,4.59l23.41,0V74.46l-24.13,0a45.71,45.71,0,0,1-12.52-1.33,25.89,25.89,0,0,1-16.4-15.53,44.2,44.2,0,0,1-2.6-16.07q0-18.14,7.73-26.78C626,9,634.11,6.14,645,6.12l23.7,0V17.78ZM1029.62,49c0,4.76,1.14,8.46,3.31,11.15a12.74,12.74,0,0,0,18.51,0c2.29-2.69,3.4-6.39,3.39-11.16s-1.12-8.53-3.35-11.15a11.5,11.5,0,0,0-9.3-4,11.29,11.29,0,0,0-9.23,4c-2.21,2.67-3.34,6.39-3.33,11.12m38.94-.06c0,7.86-2.28,14.13-7,18.89s-11,6.18-19,6.19-14.62-1.5-19.45-6.21-7.2-10.95-7.21-18.8,2.35-14.19,7.16-18.92,11.36-6.45,19.37-6.46,14.28,1.69,19.07,6.41,7.13,11,7.14,18.9M653.63,114.59l-11.28,30.29,23.18-.08ZM645.54,99,662.88,99l33.53,78.46-18.27.06-7.2-18.7-33.83.15-6.86,18.7-17.38.07Zm70.3,78.3-15.74.08-.29-78.61,15.74,0Zm64.66-.11-28.42.06c-8.35.07-14.44-1.71-18.18-5s-5.59-8.73-5.65-16.1l-.15-36.54,15.06-.06.15,35.32c0,3.84.69,6.39,2,7.69s4,1.91,7.92,1.9l12.13-.06-.15-44.95,15.06-.06Zm13.33-57.87,57.94-.21c8.4,0,14.48,1.64,18.19,4.87s5.58,8.69,5.59,16.14l.15,37-15.21.07-.13-35.08q0-6.33-1.9-8.38c-1.27-1.33-3.89-2-7.89-2l-8.45.06.16,45.3-15.4.09-.15-45.38-17.62.08.14,45.45L794,177.33ZM905,177.13l-15.83.07L889,119l15.83-.06Zm-5.67-80.26L915,96.81,896.5,112.08l-7.61.08Zm18.47,22,28.44-.13c8.53,0,14.71,1.58,18.36,4.86s5.54,8.59,5.59,16.13l.1,37.35-15,0-.16-35.44c0-4.26-.69-7.1-2-8.38s-4-1.88-8-1.88l-12.09.07.14,45.65-15-.09ZM998.76,112l-15.83,0,0-15.39,15.79-.11Zm.17,65-15.79,0-.2-58.41,15.83,0Zm25-29.7c0,5.5,1.26,9.8,3.85,12.81s6.13,4.56,10.64,4.56a13.21,13.21,0,0,0,10.65-4.65c2.56-3.06,3.82-7.3,3.82-12.82s-1.33-9.74-3.92-12.79-6.13-4.54-10.64-4.54-8,1.59-10.63,4.65-3.82,7.3-3.77,12.78M995.06,23.73c-9.7,0-19.57.13-29.29,0A9.89,9.89,0,0,0,956.83,31a18.66,18.66,0,0,0-.23,3l0,25.24c0,5.5.9,9.4,2.63,11.75,2,2.58,5.32,3.1,10.18,3.13v0h3.12l7.84.06,8.07-.06h7.68v0c4.78,0,7.94-.59,9.94-3.25,1.88-2.49,2.87-6.39,2.86-11.67l-.07-53.55L995,5.63Zm-21.88,9.36H992a3.29,3.29,0,0,1,3.28,3.27V61.47A3.29,3.29,0,0,1,992,64.75H973.18a3.29,3.29,0,0,1-3.28-3.28V36.36a3.29,3.29,0,0,1,3.28-3.27M719.1,73.6h0V65.14H688.28c-1-1.09-1.49-2.9-1.49-5.45V55.21l21.13,0c4.47,0,7.52-1.34,9.28-3.91,1.54-2.2,2-6,2-11.16,0-5.52-.39-9.36-1.75-11.71-1.75-2.79-5-4.27-9.69-4.26l-21,0c-4.48-.06-7.63,1.46-9.38,4-1.48,2.26-2.31,6-2.3,11.18l0,20c0,5.21.85,9,2.34,11.15,1.75,2.59,4.87,3.94,9.34,3.94l18.3,0h14ZM687.86,33.92h19.83a4.63,4.63,0,0,1,1.41,3.66l.1,2.9a8.38,8.38,0,0,1-1.21,5.1H686.77v-7.2a7.53,7.53,0,0,1,1.1-4.46m380.88,113.22c0,9.07-2.64,16.28-8.12,21.7s-12.77,8.16-22,8.21-16.59-2.66-22.13-8-8.33-12.63-8.34-21.63,2.63-16.28,8.15-21.77,12.87-8.2,22.11-8.21,16.52,2.62,22.08,8.09,8.2,12.58,8.26,21.65"/>
      </g>
    </g>
  </g>
</svg>
